<mxfile host="Electron" modified="2022-09-26T16:32:37.360Z" agent="5.0 (Windows NT 10.0; Win64; x64) AppleWebKit/537.36 (KHTML, like Gecko) draw.io/20.2.3 Chrome/102.0.5005.167 Electron/19.0.11 Safari/537.36" etag="qDKE4zoHL9SIIOqSjJWs" compressed="false" version="20.2.3" type="device">
  <diagram id="8KY5KoBmBq-pxiv1QV8z" name="Page-1">
    <mxGraphModel dx="1038" dy="649" grid="1" gridSize="10" guides="1" tooltips="1" connect="1" arrows="1" fold="1" page="1" pageScale="1" pageWidth="850" pageHeight="1100" background="none" math="0" shadow="0">
      <root>
        <mxCell id="0" />
        <mxCell id="1" parent="0" />
        <mxCell id="pL0uOTkrpIkgaXeiWAhv-4" value="Geolocated tweets&lt;br&gt;&lt;font style=&quot;font-size: 10px;&quot;&gt;Nominatim API&lt;/font&gt;&lt;br&gt;4.2M" style="rounded=0;whiteSpace=wrap;html=1;" parent="1" vertex="1">
          <mxGeometry x="40" y="210" width="80" height="110" as="geometry" />
        </mxCell>
        <mxCell id="pL0uOTkrpIkgaXeiWAhv-5" value="No geolocated tweets&lt;br&gt;3.2M" style="rounded=0;whiteSpace=wrap;html=1;" parent="1" vertex="1">
          <mxGeometry x="40" y="320" width="80" height="80" as="geometry" />
        </mxCell>
        <mxCell id="pL0uOTkrpIkgaXeiWAhv-23" value="location filter" style="edgeStyle=orthogonalEdgeStyle;rounded=0;orthogonalLoop=1;jettySize=auto;html=1;exitX=1;exitY=0.5;exitDx=0;exitDy=0;entryX=0;entryY=0.5;entryDx=0;entryDy=0;fontSize=10;strokeColor=default;elbow=vertical;" parent="1" source="pL0uOTkrpIkgaXeiWAhv-9" target="pL0uOTkrpIkgaXeiWAhv-18" edge="1">
          <mxGeometry relative="1" as="geometry" />
        </mxCell>
        <mxCell id="pL0uOTkrpIkgaXeiWAhv-9" value="Geolocated tweets&lt;br&gt;7.4M" style="rounded=0;whiteSpace=wrap;html=1;fontSize=10;" parent="1" vertex="1">
          <mxGeometry x="235" y="210" width="80" height="200" as="geometry" />
        </mxCell>
        <mxCell id="pL0uOTkrpIkgaXeiWAhv-15" value="geolocation model" style="endArrow=classic;html=1;rounded=0;fontSize=10;strokeColor=default;elbow=vertical;exitX=1;exitY=0.5;exitDx=0;exitDy=0;entryX=0;entryY=0.75;entryDx=0;entryDy=0;" parent="1" source="pL0uOTkrpIkgaXeiWAhv-5" target="pL0uOTkrpIkgaXeiWAhv-9" edge="1">
          <mxGeometry width="50" height="50" relative="1" as="geometry">
            <mxPoint x="250" y="200" as="sourcePoint" />
            <mxPoint x="300" y="150" as="targetPoint" />
          </mxGeometry>
        </mxCell>
        <mxCell id="pL0uOTkrpIkgaXeiWAhv-16" value="" style="endArrow=classic;html=1;rounded=0;fontSize=10;strokeColor=default;elbow=vertical;entryX=0;entryY=0.25;entryDx=0;entryDy=0;exitX=1;exitY=0.5;exitDx=0;exitDy=0;edgeStyle=orthogonalEdgeStyle;" parent="1" source="pL0uOTkrpIkgaXeiWAhv-4" target="pL0uOTkrpIkgaXeiWAhv-9" edge="1">
          <mxGeometry width="50" height="50" relative="1" as="geometry">
            <mxPoint x="180" y="260" as="sourcePoint" />
            <mxPoint x="300" y="150" as="targetPoint" />
            <Array as="points">
              <mxPoint x="120" y="260" />
            </Array>
          </mxGeometry>
        </mxCell>
        <mxCell id="pL0uOTkrpIkgaXeiWAhv-24" value="valid tweets model&amp;nbsp;&lt;br&gt;&amp;nbsp;+&amp;nbsp;filter" style="edgeStyle=orthogonalEdgeStyle;rounded=0;orthogonalLoop=1;jettySize=auto;html=1;exitX=1;exitY=0.5;exitDx=0;exitDy=0;entryX=0;entryY=0.5;entryDx=0;entryDy=0;fontSize=10;strokeColor=default;elbow=vertical;" parent="1" source="pL0uOTkrpIkgaXeiWAhv-18" target="pL0uOTkrpIkgaXeiWAhv-19" edge="1">
          <mxGeometry relative="1" as="geometry">
            <mxPoint as="offset" />
          </mxGeometry>
        </mxCell>
        <mxCell id="pL0uOTkrpIkgaXeiWAhv-18" value="Colombian tweets&lt;br&gt;1.8M" style="rounded=0;whiteSpace=wrap;html=1;fontSize=10;" parent="1" vertex="1">
          <mxGeometry x="450" y="255" width="80" height="110" as="geometry" />
        </mxCell>
        <mxCell id="pL0uOTkrpIkgaXeiWAhv-19" value="Valid tweets&lt;br&gt;1.5M" style="rounded=0;whiteSpace=wrap;html=1;fontSize=10;" parent="1" vertex="1">
          <mxGeometry x="670" y="280" width="80" height="60" as="geometry" />
        </mxCell>
        <mxCell id="pL0uOTkrpIkgaXeiWAhv-20" style="edgeStyle=orthogonalEdgeStyle;rounded=0;orthogonalLoop=1;jettySize=auto;html=1;exitX=0.5;exitY=1;exitDx=0;exitDy=0;fontSize=10;strokeColor=default;elbow=vertical;" parent="1" source="pL0uOTkrpIkgaXeiWAhv-19" target="pL0uOTkrpIkgaXeiWAhv-19" edge="1">
          <mxGeometry relative="1" as="geometry" />
        </mxCell>
        <mxCell id="pL0uOTkrpIkgaXeiWAhv-22" value="" style="aspect=fixed;pointerEvents=1;shadow=0;dashed=0;html=1;strokeColor=none;labelPosition=center;verticalLabelPosition=bottom;verticalAlign=top;align=center;fillColor=#000000;shape=mxgraph.mscae.enterprise.filter;fontSize=10;rounded=0;" parent="1" vertex="1">
          <mxGeometry x="370" y="320" width="22.22" height="20" as="geometry" />
        </mxCell>
        <mxCell id="pL0uOTkrpIkgaXeiWAhv-27" value="" style="outlineConnect=0;fontColor=#232F3E;gradientColor=none;fillColor=#000000;strokeColor=none;dashed=0;verticalLabelPosition=bottom;verticalAlign=top;align=center;html=1;fontSize=12;fontStyle=0;aspect=fixed;pointerEvents=1;shape=mxgraph.aws4.sagemaker_model;rounded=0;" parent="1" vertex="1">
          <mxGeometry x="166" y="367" width="20" height="20" as="geometry" />
        </mxCell>
        <mxCell id="pL0uOTkrpIkgaXeiWAhv-28" value="" style="outlineConnect=0;fontColor=#232F3E;gradientColor=none;fillColor=#000000;strokeColor=none;dashed=0;verticalLabelPosition=bottom;verticalAlign=top;align=center;html=1;fontSize=12;fontStyle=0;aspect=fixed;pointerEvents=1;shape=mxgraph.aws4.sagemaker_model;rounded=0;" parent="1" vertex="1">
          <mxGeometry x="570" y="330" width="20" height="20" as="geometry" />
        </mxCell>
        <mxCell id="pL0uOTkrpIkgaXeiWAhv-29" value="" style="aspect=fixed;pointerEvents=1;shadow=0;dashed=0;html=1;strokeColor=none;labelPosition=center;verticalLabelPosition=bottom;verticalAlign=top;align=center;fillColor=#000000;shape=mxgraph.mscae.enterprise.filter;fontSize=10;rounded=0;" parent="1" vertex="1">
          <mxGeometry x="600" y="330" width="22.22" height="20" as="geometry" />
        </mxCell>
        <mxCell id="pL0uOTkrpIkgaXeiWAhv-30" value="" style="outlineConnect=0;fontColor=#232F3E;gradientColor=none;fillColor=#000000;strokeColor=none;dashed=0;verticalLabelPosition=bottom;verticalAlign=top;align=center;html=1;fontSize=12;fontStyle=0;aspect=fixed;pointerEvents=1;shape=mxgraph.aws4.sagemaker_model;rounded=0;" parent="1" vertex="1">
          <mxGeometry x="330" y="445" width="20" height="20" as="geometry" />
        </mxCell>
        <mxCell id="pL0uOTkrpIkgaXeiWAhv-31" value="model usage to predict" style="text;html=1;strokeColor=none;fillColor=none;align=left;verticalAlign=middle;whiteSpace=wrap;rounded=0;fontSize=10;" parent="1" vertex="1">
          <mxGeometry x="360" y="440" width="170" height="30" as="geometry" />
        </mxCell>
        <mxCell id="pL0uOTkrpIkgaXeiWAhv-32" value="" style="aspect=fixed;pointerEvents=1;shadow=0;dashed=0;html=1;strokeColor=none;labelPosition=center;verticalLabelPosition=bottom;verticalAlign=top;align=center;fillColor=#000000;shape=mxgraph.mscae.enterprise.filter;fontSize=10;rounded=0;" parent="1" vertex="1">
          <mxGeometry x="327.78" y="470" width="22.22" height="20" as="geometry" />
        </mxCell>
        <mxCell id="pL0uOTkrpIkgaXeiWAhv-33" value="filtering" style="text;html=1;strokeColor=none;fillColor=none;align=left;verticalAlign=middle;whiteSpace=wrap;rounded=0;fontSize=10;" parent="1" vertex="1">
          <mxGeometry x="360" y="470" width="100" height="30" as="geometry" />
        </mxCell>
      </root>
    </mxGraphModel>
  </diagram>
</mxfile>
